HIERARCHY
ROOT Pelvis
{
	OFFSET 0.000000 0.000000 0.000000
	CHANNELS 6 Xposition Yposition Zposition Xrotation Yrotation Zrotation
	JOINT LeftUpLeg_virtual
	{
		OFFSET 0.000000 0.000000 0.000000
		CHANNELS 3 Xrotation Yrotation Zrotation
		JOINT LeftUpLeg
		{
			OFFSET 18.735201 -5.666702 -4.541200
			CHANNELS 3 Xrotation Yrotation Zrotation
			JOINT LeftLeg
			{
				OFFSET -0.021200 -31.938179 0.493100
				CHANNELS 3 Xrotation Yrotation Zrotation
				JOINT LeftFoot
				{
					OFFSET 0.021200 -31.938179 -4.336299
					CHANNELS 3 Xrotation Yrotation Zrotation
					JOINT LeftToeBase
					{
						OFFSET 0.943001 -26.722000 15.023500
						CHANNELS 3 Xrotation Yrotation Zrotation
						End Site
						{
							OFFSET 0 0 0
						}
					}
				}
			}
		}
	}
	JOINT RightUpLeg_virtual
	{
		OFFSET 0.000000 0.000000 0.000000
		CHANNELS 3 Xrotation Yrotation Zrotation
		JOINT RightUpLeg
		{
			OFFSET -18.735201 -5.666702 -4.541200
			CHANNELS 3 Xrotation Yrotation Zrotation
			JOINT RightLeg
			{
				OFFSET 0.018946 -31.938133 0.493100
				CHANNELS 3 Xrotation Yrotation Zrotation
				JOINT RightFoot
				{
					OFFSET -0.018946 -31.938126 -4.336299
					CHANNELS 3 Xrotation Yrotation Zrotation
					JOINT RightToeBase
					{
						OFFSET -0.943001 -26.722004 15.023500
						CHANNELS 3 Xrotation Yrotation Zrotation
						End Site
						{
							OFFSET 0 0 0
						}
					}
				}
			}
		}
	}
	JOINT Hips_virtual
	{
		OFFSET 0.000000 0.000000 0.000000
		CHANNELS 3 Xrotation Yrotation Zrotation
		JOINT Hips
		{
			OFFSET -0.000000 -0.000000 -0.000000
			CHANNELS 3 Xrotation Yrotation Zrotation
			JOINT Spine
			{
				OFFSET 0.000000 10.199997 -0.299500
				CHANNELS 3 Xrotation Yrotation Zrotation
				JOINT Spine1
				{
					OFFSET 0.000000 11.900002 -1.516600
					CHANNELS 3 Xrotation Yrotation Zrotation
					JOINT Spine2
					{
						OFFSET 0.000000 13.600006 -2.842500
						CHANNELS 3 Xrotation Yrotation Zrotation
						JOINT Neck_virtual
						{
							OFFSET 0.000000 0.000000 0.000000
							CHANNELS 3 Xrotation Yrotation Zrotation
							JOINT Neck
							{
								OFFSET 0.000000 9.624100 -2.890100
								CHANNELS 3 Xrotation Yrotation Zrotation
								JOINT Head
								{
									OFFSET 0.000000 14.068802 -1.351900
									CHANNELS 3 Xrotation Yrotation Zrotation
									End Site
									{
										OFFSET 0 0 0
									}
								}
							}
						}
						JOINT LeftShoulder_virtual
						{
							OFFSET 0.000000 0.000000 0.000000
							CHANNELS 3 Xrotation Yrotation Zrotation
							JOINT LeftShoulder
							{
								OFFSET 15.263000 10.923401 -0.547700
								CHANNELS 3 Xrotation Yrotation Zrotation
								JOINT LeftArm
								{
									OFFSET 25.438599 -2.830597 -13.032500
									CHANNELS 3 Xrotation Yrotation Zrotation
									JOINT LeftForeArm
									{
										OFFSET 29.960503 0.000000 0.000000
										CHANNELS 3 Xrotation Yrotation Zrotation
										JOINT LeftHand
										{
											OFFSET 27.849251 0.000000 0.000000
											CHANNELS 3 Xrotation Yrotation Zrotation
											End Site
											{
												OFFSET 0 0 0
											}
										}
									}
								}
							}
						}
						JOINT RightShoulder_virtual
						{
							OFFSET 0.000000 0.000000 0.000000
							CHANNELS 3 Xrotation Yrotation Zrotation
							JOINT RightShoulder
							{
								OFFSET -15.263000 10.923401 -0.547700
								CHANNELS 3 Xrotation Yrotation Zrotation
								JOINT RightArm
								{
									OFFSET -25.438599 -2.830597 -13.032500
									CHANNELS 3 Xrotation Yrotation Zrotation
									JOINT RightForeArm
									{
										OFFSET -29.960503 0.000000 0.000000
										CHANNELS 3 Xrotation Yrotation Zrotation
										JOINT RightHand
										{
											OFFSET -27.849251 0.000000 0.000000
											CHANNELS 3 Xrotation Yrotation Zrotation
											End Site
											{
												OFFSET 0 0 0
											}
										}
									}
								}
							}
						}
					}
				}
			}
		}
	}
}
MOTION
Frames: 5
Frame Time: 0.03333333
0.897898 93.750381 1.714666 0.000000 0.000000 0.000000 11.933626 -6.883792 -3.115507 -24.287033 11.223640 11.803416 30.749197 1.845501 -0.078297 -16.181155 2.052454 -4.066261 0.000000 0.000000 0.000000 6.956775 -1.901477 1.788469 -20.390790 -5.987258 -12.837824 28.422526 -2.050974 -0.711533 -19.158952 -5.897904 8.564471 0.000000 0.000000 0.000000 -0.880789 -0.402216 0.877773 -1.346394 10.325484 1.331139 4.824797 0.111079 -0.023775 1.016506 0.082224 -0.117702 0.000000 0.000000 0.000000 2.107785 0.087095 0.136749 -0.723025 0.062941 -0.100029 0.000000 0.000000 0.000000 2.308107 0.377023 -1.024349 0.639501 -4.434972 -10.723194 -7.747697 -12.293512 -47.497402 2.099579 -46.388172 -1.516025 0.000000 0.000000 0.000000 2.425849 -0.326072 1.961307 0.380680 6.649460 13.130111 1.291171 -1.228072 48.138644 2.467631 33.477363 2.296086 0.000000 0.000000 0.000000 
0.110504 93.768692 1.819294 0.000000 0.000000 0.000000 12.729097 -6.820742 -2.834853 -23.212948 11.326235 12.011986 29.480722 2.056278 -0.125126 -17.301754 2.326985 -4.085753 0.000000 0.000000 0.000000 7.080286 -2.873514 2.176238 -20.315298 -6.375801 -12.534048 28.160341 -2.217094 -0.838399 -19.679824 -6.015967 8.203562 0.000000 0.000000 0.000000 -1.907191 -1.971838 0.116136 0.506126 10.131985 0.109259 4.283952 -0.203249 -0.118869 0.704173 0.209063 0.207515 0.000000 0.000000 0.000000 2.279375 0.126666 -0.011536 -0.587234 0.193951 -0.133248 0.000000 0.000000 0.000000 1.646774 0.250467 -1.070762 1.125412 -4.043134 -11.678683 -6.901971 -12.825671 -47.122032 3.603117 -46.456163 -0.595179 0.000000 0.000000 0.000000 2.026220 -0.034719 2.033913 0.303926 7.944000 13.992199 1.467684 -1.033609 48.420215 2.018584 35.045250 2.686667 0.000000 0.000000 0.000000 
-0.095326 93.695168 2.455044 0.000000 0.000000 0.000000 13.247060 -6.323356 -2.439664 -22.638163 11.453494 12.503320 28.154487 2.296750 -0.020721 -18.310168 2.578425 -3.843044 0.000000 0.000000 0.000000 6.670288 -3.437571 1.759858 -20.921552 -6.342960 -13.081136 27.835036 -2.501566 -0.779486 -19.924621 -6.329063 8.063866 0.000000 0.000000 0.000000 -0.868824 -2.385361 0.834482 -1.942796 10.750214 -0.525018 5.376013 -0.475720 -0.636543 0.320543 0.081593 0.500691 0.000000 0.000000 0.000000 2.663717 0.114871 0.031300 -0.496140 0.235194 -0.204357 0.000000 0.000000 0.000000 1.311358 0.523505 -0.913254 0.998279 -4.735462 -12.001004 -6.801872 -13.967391 -44.648161 4.497549 -45.757025 0.712356 0.000000 0.000000 0.000000 1.934256 0.008224 1.962806 0.675445 7.524805 13.612904 1.366011 -2.335560 48.897225 1.464920 32.853060 2.598086 0.000000 0.000000 0.000000 
-0.492672 93.813980 1.945652 0.000000 0.000000 0.000000 13.074136 -7.035139 -2.588351 -22.903168 11.309413 12.292677 28.610090 2.161430 -0.162865 -18.080798 2.505690 -4.182486 0.000000 0.000000 0.000000 7.200572 -2.246322 2.050179 -20.136298 -6.174189 -12.617313 28.982053 -2.718475 -0.799507 -19.058719 -6.456416 7.886737 0.000000 0.000000 0.000000 -1.558198 -1.300728 0.218922 0.730585 11.438490 -1.359039 4.460073 -0.813401 -0.336401 0.480722 0.370899 0.122740 0.000000 0.000000 0.000000 2.703349 0.074226 0.166866 -0.409040 0.235857 -0.169917 0.000000 0.000000 0.000000 1.790665 0.306494 -1.146954 1.074205 -3.774313 -12.324593 -6.206819 -15.330194 -45.074563 4.922344 -47.110960 0.689883 0.000000 0.000000 0.000000 2.072422 0.151594 2.000658 0.582184 7.733810 14.717364 -0.347042 -2.949821 49.461863 0.763812 34.591736 3.168774 0.000000 0.000000 0.000000 
-0.236651 93.697624 1.777203 0.000000 0.000000 0.000000 12.911047 -8.261378 -2.518389 -22.950301 10.950612 12.131675 28.411657 2.587061 -0.144523 -18.142533 2.930268 -3.929324 0.000000 0.000000 0.000000 6.938767 -1.430755 2.031767 -20.499356 -5.924131 -12.533035 28.714723 -2.388504 -0.704021 -19.354275 -6.192561 8.218181 0.000000 0.000000 0.000000 -0.161960 -0.618615 0.218879 -0.987777 10.141474 -0.639706 4.851514 -0.608794 -0.760024 -0.183426 0.288738 0.406197 0.000000 0.000000 0.000000 2.331586 -0.069770 0.320324 -0.778498 0.288429 -0.128009 0.000000 0.000000 0.000000 1.629864 0.238090 -1.062594 0.856547 -3.045580 -12.921936 -6.789775 -14.653216 -43.150243 4.450144 -46.246596 0.740188 0.000000 0.000000 0.000000 1.892345 0.152491 2.153527 0.788838 8.500392 14.307057 -0.101275 -3.729797 49.592276 0.390340 36.152963 3.471242 0.000000 0.000000 0.000000 
